<svg width="137" height="42" viewBox="0 0 137 42" fill="none" xmlns="http://www.w3.org/2000/svg">
<g clip-path="url(#clip0_965_2780)">
<path d="M131.956 41.27H4.79291C2.15068 41.27 0 39.1133 0 36.4731V5.51936C0 2.87814 2.15068 0.729492 4.79291 0.729492H131.956C134.598 0.729492 136.824 2.87814 136.824 5.51936V36.4731C136.824 39.1133 134.598 41.27 131.956 41.27Z" fill="#A6A6A6"/>
<path d="M135.844 36.4744C135.844 38.619 134.106 40.3562 131.958 40.3562H4.79322C2.64559 40.3562 0.902344 38.619 0.902344 36.4744V5.51866C0.902344 3.37508 2.64559 1.63184 4.79322 1.63184H131.957C134.106 1.63184 135.843 3.37508 135.843 5.51866L135.844 36.4744Z" fill="black"/>
<path d="M30.5352 20.7809C30.5058 17.5143 33.2099 15.9251 33.3335 15.8511C31.8021 13.6184 29.4285 13.3133 28.5943 13.289C26.6008 13.0792 24.667 14.4819 23.6514 14.4819C22.6156 14.4819 21.0518 13.3092 19.3663 13.3437C17.1974 13.3771 15.1683 14.6329 14.0555 16.5829C11.7589 20.5589 13.4717 26.4018 15.672 29.6157C16.7727 31.1896 18.0589 32.9471 19.7423 32.8852C21.3893 32.8173 22.0045 31.8352 23.992 31.8352C25.9612 31.8352 26.5389 32.8852 28.2558 32.8457C30.0234 32.8173 31.1362 31.2646 32.1984 29.6765C33.4703 27.8724 33.9812 26.0957 34.0014 26.0045C33.9599 25.9903 30.5687 24.6961 30.5352 20.7809Z" fill="white"/>
<path d="M27.2912 11.1745C28.177 10.0668 28.7831 8.55967 28.6149 7.03027C27.3328 7.08703 25.7294 7.9171 24.8061 9.00054C23.9892 9.95527 23.2594 11.5201 23.448 12.9918C24.8882 13.0992 26.3669 12.2651 27.2912 11.1745Z" fill="white"/>
<path d="M54.3712 32.6587H52.0695L50.8087 28.6969H46.4263L45.2253 32.6587H42.9844L47.3263 19.1709H50.008L54.3712 32.6587ZM50.4286 27.0348L49.2884 23.5128C49.1678 23.153 48.9418 22.3057 48.6084 20.9719H48.5678C48.435 21.5456 48.2212 22.3929 47.9273 23.5128L46.8073 27.0348H50.4286Z" fill="white"/>
<path d="M65.5378 27.6763C65.5378 29.3304 65.0908 30.6378 64.1969 31.5976C63.3962 32.452 62.4019 32.8787 61.2151 32.8787C59.934 32.8787 59.0138 32.4185 58.4533 31.4983H58.4128V36.6216H56.2519V26.1347C56.2519 25.0949 56.2246 24.0277 56.1719 22.9331H58.0722L58.1928 24.4746H58.2334C58.954 23.3131 60.0475 22.7334 61.5151 22.7334C62.6624 22.7334 63.6202 23.1864 64.3864 24.0935C65.1546 25.0016 65.5378 26.1956 65.5378 27.6763ZM63.3364 27.7554C63.3364 26.8087 63.1236 26.0283 62.6959 25.4141C62.2286 24.7736 61.6013 24.4533 60.8148 24.4533C60.2817 24.4533 59.7972 24.6317 59.3644 24.9834C58.9307 25.3381 58.6469 25.8013 58.5141 26.375C58.4472 26.6425 58.4138 26.8614 58.4138 27.0337V28.6554C58.4138 29.3628 58.6307 29.9598 59.0644 30.4473C59.4982 30.9348 60.0617 31.178 60.755 31.178C61.5688 31.178 62.2023 30.8638 62.6553 30.2375C63.1094 29.6101 63.3364 28.7831 63.3364 27.7554Z" fill="white"/>
<path d="M76.7242 27.6773C76.7242 29.3313 76.2773 30.6388 75.3823 31.5986C74.5827 32.453 73.5884 32.8796 72.4016 32.8796C71.1205 32.8796 70.2003 32.4195 69.6408 31.4992H69.6003V36.6226H67.4394V26.1357C67.4394 25.0959 67.4121 24.0286 67.3594 22.934H69.2597L69.3803 24.4756H69.4209C70.1405 23.3141 71.234 22.7344 72.7026 22.7344C73.8489 22.7344 74.8067 23.1874 75.5749 24.0945C76.3401 25.0026 76.7242 26.1965 76.7242 27.6773ZM74.5229 27.7563C74.5229 26.8097 74.309 26.0293 73.8813 25.4151C73.4141 24.7746 72.7888 24.4543 72.0013 24.4543C71.4671 24.4543 70.9837 24.6327 70.5499 24.9844C70.1161 25.3391 69.8334 25.8023 69.7006 26.3759C69.6347 26.6435 69.6003 26.8624 69.6003 27.0347V28.6563C69.6003 29.3638 69.8171 29.9607 70.2489 30.4482C70.6827 30.9347 71.2462 31.179 71.9415 31.179C72.7553 31.179 73.3888 30.8648 73.8418 30.2384C74.2959 29.6111 74.5229 28.784 74.5229 27.7563Z" fill="white"/>
<path d="M89.2309 28.8767C89.2309 30.024 88.8325 30.9574 88.0329 31.678C87.1542 32.4655 85.9309 32.8588 84.3589 32.8588C82.9075 32.8588 81.744 32.579 80.8633 32.0186L81.364 30.2176C82.3126 30.7912 83.3535 31.079 84.4876 31.079C85.3015 31.079 85.9349 30.8946 86.39 30.5277C86.843 30.1608 87.069 29.6682 87.069 29.054C87.069 28.5067 86.8825 28.0456 86.5085 27.6716C86.1366 27.2976 85.5153 26.95 84.6477 26.6287C82.2863 25.748 81.1065 24.4578 81.1065 22.7611C81.1065 21.6524 81.52 20.7432 82.3481 20.0358C83.1731 19.3273 84.2738 18.9736 85.6501 18.9736C86.8775 18.9736 87.8971 19.1875 88.7109 19.6142L88.1707 21.3757C87.4106 20.9621 86.5511 20.7554 85.5893 20.7554C84.8292 20.7554 84.2352 20.9429 83.8096 21.3159C83.4498 21.6493 83.2694 22.0557 83.2694 22.5371C83.2694 23.0703 83.4751 23.5111 83.8886 23.8578C84.2484 24.178 84.9021 24.5246 85.8508 24.8986C87.0113 25.3659 87.8636 25.9121 88.4119 26.5385C88.9582 27.1628 89.2309 27.9442 89.2309 28.8767Z" fill="white"/>
<path d="M96.3761 24.5547H93.9943V29.2767C93.9943 30.4777 94.4139 31.0777 95.2551 31.0777C95.6413 31.0777 95.9616 31.0442 96.2149 30.9773L96.2747 32.6182C95.8491 32.7773 95.2886 32.8574 94.5943 32.8574C93.741 32.8574 93.0741 32.5969 92.5926 32.077C92.1133 31.556 91.872 30.6824 91.872 29.455V24.5527H90.4531V22.931H91.872V21.1503L93.9943 20.5098V22.931H96.3761V24.5547Z" fill="white"/>
<path d="M107.12 27.7158C107.12 29.2107 106.692 30.4381 105.839 31.3979C104.944 32.3861 103.756 32.8786 102.275 32.8786C100.848 32.8786 99.712 32.4053 98.8647 31.4587C98.0174 30.5121 97.5938 29.3171 97.5938 27.8769C97.5938 26.3698 98.0296 25.1354 98.9042 24.1756C99.7769 23.2148 100.955 22.7344 102.435 22.7344C103.862 22.7344 105.011 23.2077 105.877 24.1553C106.706 25.0746 107.12 26.2614 107.12 27.7158ZM104.878 27.7857C104.878 26.8888 104.686 26.1195 104.298 25.478C103.845 24.7016 103.197 24.3144 102.358 24.3144C101.49 24.3144 100.83 24.7026 100.377 25.478C99.9887 26.1205 99.7971 26.9019 99.7971 27.8263C99.7971 28.7232 99.9887 29.4925 100.377 30.133C100.844 30.9094 101.497 31.2965 102.339 31.2965C103.164 31.2965 103.812 30.9013 104.279 30.1128C104.677 29.459 104.878 28.6817 104.878 27.7857Z" fill="white"/>
<path d="M114.145 24.8334C113.931 24.7939 113.703 24.7736 113.464 24.7736C112.704 24.7736 112.116 25.0604 111.702 25.6351C111.342 26.1418 111.162 26.7824 111.162 27.5557V32.6587H109.002L109.022 25.9959C109.022 24.875 108.995 23.8543 108.941 22.9341H110.824L110.903 24.7949H110.962C111.19 24.1554 111.55 23.6405 112.043 23.2543C112.524 22.9067 113.044 22.7334 113.605 22.7334C113.804 22.7334 113.985 22.7476 114.145 22.7729V24.8334Z" fill="white"/>
<path d="M123.807 27.3364C123.807 27.7236 123.782 28.0499 123.728 28.3165H117.246C117.271 29.2773 117.584 30.0121 118.186 30.5189C118.733 30.9719 119.439 31.1989 120.307 31.1989C121.266 31.1989 122.142 31.0459 122.93 30.7388L123.268 32.2388C122.348 32.6401 121.261 32.8398 120.008 32.8398C118.5 32.8398 117.316 32.3959 116.454 31.5091C115.595 30.6222 115.164 29.4314 115.164 27.9374C115.164 26.4709 115.564 25.2496 116.366 24.2756C117.205 23.2358 118.339 22.7158 119.766 22.7158C121.168 22.7158 122.229 23.2358 122.95 24.2756C123.52 25.1016 123.807 26.1233 123.807 27.3364ZM121.747 26.776C121.761 26.1354 121.62 25.582 121.327 25.1148C120.953 24.5138 120.379 24.2138 119.605 24.2138C118.899 24.2138 118.324 24.5067 117.885 25.0945C117.526 25.5618 117.312 26.1222 117.246 26.7749H121.747V26.776Z" fill="white"/>
<path d="M49.7122 10.8737C49.7122 12.0666 49.3545 12.9646 48.6399 13.5676C47.9781 14.1241 47.0376 14.4028 45.8193 14.4028C45.2153 14.4028 44.6984 14.3764 44.2656 14.3237V7.80581C44.8302 7.71459 45.4383 7.66797 46.095 7.66797C47.2555 7.66797 48.1301 7.92033 48.72 8.42506C49.3808 8.99567 49.7122 9.81155 49.7122 10.8737ZM48.5923 10.9031C48.5923 10.1298 48.3876 9.53689 47.9781 9.12337C47.5687 8.71087 46.9707 8.50412 46.1832 8.50412C45.8487 8.50412 45.5639 8.52641 45.3278 8.57304V13.5281C45.4585 13.5484 45.6977 13.5575 46.0454 13.5575C46.8582 13.5575 47.4856 13.3315 47.9274 12.8795C48.3693 12.4274 48.5923 11.7686 48.5923 10.9031Z" fill="white"/>
<path d="M55.6521 11.9154C55.6521 12.6502 55.4423 13.2522 55.0227 13.7245C54.5828 14.21 54 14.4522 53.2723 14.4522C52.571 14.4522 52.0125 14.2201 51.596 13.7539C51.1804 13.2887 50.9727 12.7019 50.9727 11.9944C50.9727 11.2546 51.1865 10.6475 51.6162 10.1762C52.046 9.7049 52.6237 9.46875 53.3514 9.46875C54.0527 9.46875 54.6162 9.70084 55.0429 10.166C55.4483 10.6181 55.6521 11.2019 55.6521 11.9154ZM54.5504 11.9498C54.5504 11.509 54.4551 11.1309 54.2656 10.8157C54.0426 10.4346 53.7254 10.2441 53.3129 10.2441C52.8862 10.2441 52.5618 10.4346 52.3389 10.8157C52.1483 11.1309 52.0541 11.515 52.0541 11.9691C52.0541 12.41 52.1493 12.788 52.3389 13.1032C52.5689 13.4843 52.8892 13.6748 53.3027 13.6748C53.7081 13.6748 54.0264 13.4812 54.2554 13.0931C54.452 12.7718 54.5504 12.3907 54.5504 11.9498Z" fill="white"/>
<path d="M63.6137 9.56641L62.1188 14.3441H61.1458L60.5265 12.2694C60.3695 11.7515 60.2417 11.2367 60.1424 10.7259H60.1232C60.0309 11.2509 59.9032 11.7647 59.739 12.2694L59.0813 14.3441H58.0971L56.6914 9.56641H57.783L58.3232 11.8377C58.4539 12.3749 58.5613 12.8867 58.6475 13.3711H58.6667C58.7458 12.9718 58.8765 12.463 59.061 11.8478L59.739 9.56742H60.6046L61.2543 11.7992C61.4113 12.3434 61.539 12.8674 61.6374 13.3721H61.6668C61.7387 12.8806 61.8472 12.3566 61.9911 11.7992L62.5708 9.56742H63.6137V9.56641Z" fill="white"/>
<path d="M69.1175 14.3439H68.0554V11.6074C68.0554 10.7641 67.7351 10.3425 67.0925 10.3425C66.7773 10.3425 66.5229 10.4581 66.3253 10.6901C66.1297 10.9222 66.0304 11.1959 66.0304 11.5091V14.3428H64.9682V10.9314C64.9682 10.5118 64.955 10.0567 64.9297 9.56413H65.8631L65.9128 10.3111H65.9422C66.0658 10.079 66.2503 9.88744 66.4925 9.7344C66.7804 9.55602 67.1027 9.46582 67.4554 9.46582C67.9013 9.46582 68.2722 9.60974 68.5672 9.89859C68.9341 10.2523 69.1175 10.7803 69.1175 11.4817V14.3439Z" fill="white"/>
<path d="M72.0494 14.344H70.9883V7.37402H72.0494V14.344Z" fill="white"/>
<path d="M78.3005 11.9154C78.3005 12.6502 78.0907 13.2522 77.6711 13.7245C77.2312 14.21 76.6475 14.4522 75.9208 14.4522C75.2184 14.4522 74.6599 14.2201 74.2444 13.7539C73.8289 13.2887 73.6211 12.7019 73.6211 11.9944C73.6211 11.2546 73.8349 10.6475 74.2647 10.1762C74.6944 9.7049 75.2721 9.46875 75.9988 9.46875C76.7012 9.46875 77.2637 9.70084 77.6914 10.166C78.0968 10.6181 78.3005 11.2019 78.3005 11.9154ZM77.1978 11.9498C77.1978 11.509 77.1025 11.1309 76.913 10.8157C76.691 10.4346 76.3728 10.2441 75.9613 10.2441C75.5336 10.2441 75.2093 10.4346 74.9873 10.8157C74.7968 11.1309 74.7025 11.515 74.7025 11.9691C74.7025 12.41 74.7978 12.788 74.9873 13.1032C75.2174 13.4843 75.5377 13.6748 75.9512 13.6748C76.3566 13.6748 76.6738 13.4812 76.9029 13.0931C77.1005 12.7718 77.1978 12.3907 77.1978 11.9498Z" fill="white"/>
<path d="M83.4418 14.3437H82.4881L82.4091 13.7934H82.3797C82.0533 14.2323 81.5881 14.4522 80.9841 14.4522C80.533 14.4522 80.1682 14.3073 79.8935 14.0194C79.6442 13.7579 79.5195 13.4326 79.5195 13.0465C79.5195 12.4627 79.7628 12.0177 80.2523 11.7096C80.7408 11.4015 81.428 11.2505 82.3128 11.2576V11.1684C82.3128 10.539 81.9824 10.2248 81.3205 10.2248C80.8493 10.2248 80.4337 10.3434 80.0749 10.5785L79.8591 9.88125C80.303 9.60659 80.8513 9.46875 81.4979 9.46875C82.7466 9.46875 83.3729 10.1275 83.3729 11.4451V13.2046C83.3729 13.6819 83.3962 14.062 83.4418 14.3437ZM82.3391 12.7019V11.965C81.1675 11.9448 80.5817 12.266 80.5817 12.9279C80.5817 13.1772 80.6486 13.3637 80.7854 13.4883C80.9222 13.613 81.0966 13.6748 81.3043 13.6748C81.5374 13.6748 81.7553 13.6008 81.954 13.4539C82.1537 13.3059 82.2763 13.1184 82.3219 12.8883C82.333 12.8367 82.3391 12.7738 82.3391 12.7019Z" fill="white"/>
<path d="M89.4788 14.344H88.5362L88.4865 13.5767H88.4571C88.1561 14.1605 87.6433 14.4524 86.9227 14.4524C86.347 14.4524 85.8676 14.2264 85.4876 13.7744C85.1075 13.3223 84.918 12.7355 84.918 12.0149C84.918 11.2416 85.1237 10.6152 85.5372 10.1369C85.9376 9.69091 86.4281 9.46794 87.0119 9.46794C87.6534 9.46794 88.1024 9.68382 88.3578 10.1166H88.3781V7.37402H89.4413V13.0568C89.4413 13.522 89.4534 13.9507 89.4788 14.344ZM88.3781 12.3291V11.5325C88.3781 11.3946 88.368 11.2831 88.3487 11.198C88.2889 10.9426 88.1602 10.7277 87.9646 10.5544C87.7669 10.3811 87.5288 10.294 87.2541 10.294C86.8578 10.294 86.5477 10.4511 86.3196 10.7663C86.0936 11.0815 85.9791 11.4838 85.9791 11.9754C85.9791 12.4477 86.0876 12.8308 86.3055 13.1257C86.5355 13.4399 86.8457 13.597 87.2338 13.597C87.5825 13.597 87.8612 13.4663 88.073 13.2038C88.2778 12.9615 88.3781 12.6696 88.3781 12.3291Z" fill="white"/>
<path d="M98.5622 11.9154C98.5622 12.6502 98.3524 13.2522 97.9328 13.7245C97.493 14.21 96.9112 14.4522 96.1825 14.4522C95.4821 14.4522 94.9237 14.2201 94.5061 13.7539C94.0906 13.2887 93.8828 12.7019 93.8828 11.9944C93.8828 11.2546 94.0967 10.6475 94.5264 10.1762C94.9561 9.7049 95.5338 9.46875 96.2625 9.46875C96.9629 9.46875 97.5274 9.70084 97.9531 10.166C98.3585 10.6181 98.5622 11.2019 98.5622 11.9154ZM97.4615 11.9498C97.4615 11.509 97.3663 11.1309 97.1767 10.8157C96.9527 10.4346 96.6365 10.2441 96.223 10.2441C95.7973 10.2441 95.473 10.4346 95.249 10.8157C95.0585 11.1309 94.9642 11.515 94.9642 11.9691C94.9642 12.41 95.0595 12.788 95.249 13.1032C95.4791 13.4843 95.7994 13.6748 96.2129 13.6748C96.6183 13.6748 96.9375 13.4812 97.1666 13.0931C97.3622 12.7718 97.4615 12.3907 97.4615 11.9498Z" fill="white"/>
<path d="M104.273 14.3439H103.212V11.6074C103.212 10.7641 102.891 10.3425 102.248 10.3425C101.933 10.3425 101.678 10.4581 101.482 10.6901C101.285 10.9222 101.187 11.1959 101.187 11.5091V14.3428H100.123V10.9314C100.123 10.5118 100.111 10.0567 100.086 9.56413H101.018L101.068 10.3111H101.097C101.222 10.079 101.407 9.88744 101.648 9.7344C101.937 9.55602 102.258 9.46582 102.612 9.46582C103.057 9.46582 103.427 9.60974 103.722 9.89859C104.09 10.2523 104.273 10.7803 104.273 11.4817V14.3439Z" fill="white"/>
<path d="M111.422 10.3614H110.252V12.6824C110.252 13.2723 110.46 13.5672 110.871 13.5672C111.062 13.5672 111.22 13.551 111.344 13.5175L111.372 14.3233C111.162 14.4023 110.886 14.4419 110.547 14.4419C110.127 14.4419 109.801 14.3142 109.565 14.0587C109.328 13.8033 109.21 13.3736 109.21 12.7706V10.3614H108.512V9.56584H109.21V8.69017L110.251 8.37598V9.56483H111.42V10.3614H111.422Z" fill="white"/>
<path d="M117.044 14.344H115.981V11.6277C115.981 10.7713 115.66 10.3426 115.019 10.3426C114.526 10.3426 114.19 10.5909 114.005 11.0875C113.974 11.1919 113.956 11.3196 113.956 11.4696V14.3429H112.895V7.37402H113.956V10.2534H113.976C114.31 9.72943 114.79 9.46794 115.411 9.46794C115.851 9.46794 116.215 9.61186 116.504 9.90071C116.863 10.2605 117.044 10.7956 117.044 11.5031V14.344Z" fill="white"/>
<path d="M122.845 11.7292C122.845 11.9198 122.831 12.0799 122.806 12.2106H119.62C119.634 12.6829 119.787 13.0427 120.081 13.2921C120.351 13.515 120.699 13.6265 121.124 13.6265C121.596 13.6265 122.025 13.5515 122.413 13.4005L122.579 14.1383C122.126 14.335 121.593 14.4333 120.975 14.4333C120.235 14.4333 119.653 14.2154 119.231 13.7796C118.807 13.3437 118.598 12.7589 118.598 12.0252C118.598 11.3046 118.793 10.7046 119.188 10.2262C119.599 9.71537 120.155 9.45996 120.858 9.45996C121.545 9.45996 122.067 9.71537 122.42 10.2262C122.704 10.6316 122.845 11.1333 122.845 11.7292ZM121.832 11.4546C121.84 11.1394 121.77 10.8677 121.626 10.6387C121.442 10.3437 121.161 10.1958 120.781 10.1958C120.434 10.1958 120.151 10.3397 119.935 10.6285C119.759 10.8586 119.655 11.1333 119.62 11.4546H121.832Z" fill="white"/>
</g>
<defs>
<clipPath id="clip0_965_2780">
<rect width="136.824" height="40.5405" fill="white" transform="translate(0 0.729492)"/>
</clipPath>
</defs>
</svg>
