<svg width="205" height="30" viewBox="0 0 205 30" fill="none" xmlns="http://www.w3.org/2000/svg">
<path d="M145.895 0C137.605 0 130.895 6.71053 130.895 15C130.895 23.2895 137.605 30 145.895 30C154.184 30 160.895 23.2895 160.895 15C160.973 6.71053 154.184 0 145.895 0ZM156.079 20.2105C155.842 21.1579 155.131 21.8684 154.184 22.1053C152.526 22.5789 145.895 22.5789 145.895 22.5789C145.895 22.5789 139.263 22.5789 137.605 22.1053C136.658 21.8684 135.947 21.1579 135.71 20.2105C135.237 18.5526 135.237 15.0789 135.237 15.0789C135.237 15.0789 135.237 11.6053 135.71 9.94737C135.947 9 136.658 8.28947 137.605 8.05263C139.263 7.57895 145.895 7.57895 145.895 7.57895C145.895 7.57895 152.526 7.57895 154.184 8.05263C155.131 8.28947 155.842 9 156.079 9.94737C156.552 11.6053 156.552 15.0789 156.552 15.0789C156.552 15.0789 156.552 18.4737 156.079 20.2105Z" fill="white"/>
<path d="M143.762 18.1576V11.8418L149.288 14.9997L143.762 18.1576Z" fill="white"/>
<path d="M102.316 0C94.0269 0 87.3164 6.71053 87.3164 15C87.3164 23.2895 94.0269 30 102.316 30C110.606 30 117.316 23.2895 117.316 15C117.316 6.71053 110.606 0 102.316 0ZM108.632 11.7632C108.869 16.4211 105.395 21.5526 99.3164 21.5526C97.5006 21.5526 95.7638 21 94.2638 20.0526C96.0006 20.2895 97.7375 19.7368 99.1585 18.7105C97.7375 18.7105 96.4743 17.7632 96.0796 16.4211C96.6322 16.5 97.1059 16.5 97.5796 16.3421C96.0006 16.0263 94.8954 14.6053 94.9743 13.1053C95.448 13.3421 95.9217 13.5 96.4743 13.5C94.9743 12.5526 94.5796 10.5789 95.448 9.07895C97.1059 11.0526 99.4743 12.3947 102.237 12.4737C101.764 10.4211 103.343 8.44737 105.474 8.44737C106.422 8.44737 107.29 8.84211 107.843 9.47368C108.553 9.31579 109.264 9.07895 109.895 8.68421C109.659 9.47368 109.106 10.1053 108.474 10.5C109.106 10.4211 109.737 10.2632 110.369 9.94737C109.816 10.7368 109.264 11.2895 108.632 11.7632Z" fill="white"/>
<path d="M189.551 0C181.261 0 174.551 6.71053 174.551 15C174.551 23.2895 181.261 30 189.551 30C197.84 30 204.551 23.2895 204.551 15C204.551 6.71053 197.84 0 189.551 0ZM185.84 21.7105H182.761V11.6842H185.84V21.7105ZM184.261 10.3421C183.235 10.3421 182.446 9.47368 182.446 8.52632C182.446 7.5 183.235 6.71053 184.261 6.71053C185.288 6.71053 186.077 7.57895 186.077 8.52632C186.077 9.55263 185.288 10.3421 184.261 10.3421ZM197.524 21.7105H194.446C194.446 21.7105 194.446 17.9211 194.446 16.4211C194.446 15 193.893 14.1316 192.788 14.1316C191.524 14.1316 190.893 15 190.893 16.4211C190.893 18 190.893 21.7105 190.893 21.7105H187.893V11.6842H190.893V13.0263C190.893 13.0263 191.761 11.3684 193.893 11.3684C196.024 11.3684 197.524 12.6316 197.524 15.3947C197.524 18.0789 197.524 21.7105 197.524 21.7105Z" fill="white"/>
<path d="M15 0C6.71053 0 0 6.71053 0 15C0 23.2895 6.71053 30 15 30C23.2895 30 30 23.2895 30 15C30.0789 6.71053 23.2895 0 15 0ZM19.1842 9.1579C19.1842 9.1579 17.7632 9.1579 17.2105 9.1579C16.5 9.1579 16.3421 9.47368 16.3421 10.1842C16.3421 10.8158 16.3421 11.9211 16.3421 11.9211H19.1842L18.9474 14.9211H16.4211V24.0789H12.7895V15H10.8947V11.8421H12.7895C12.7895 11.8421 12.7895 11.3684 12.7895 9.39474C12.7895 7.10526 14.0526 5.92105 16.7368 5.92105C17.2105 5.92105 19.2632 5.92105 19.2632 5.92105V9.1579H19.1842Z" fill="white"/>
<path d="M65.0514 10.1846C64.8935 9.78988 64.7356 9.55304 64.4198 9.23725C64.104 8.92146 63.8672 8.76357 63.4725 8.60567C63.1567 8.52673 62.7619 8.36883 61.9725 8.28989C61.104 8.21094 60.8672 8.21094 58.6567 8.21094C56.4461 8.21094 56.2093 8.21094 55.3409 8.28989C54.5514 8.28989 54.0777 8.44778 53.8409 8.60567C53.4461 8.76357 53.2093 8.92146 52.8935 9.23725C52.5777 9.55304 52.4198 9.78988 52.2619 10.1846C52.183 10.5004 52.0251 10.8951 51.9461 11.6846C51.9461 12.553 51.8672 12.7899 51.8672 15.0004C51.8672 17.2109 51.8672 17.4478 51.9461 18.3162C51.9461 19.1057 52.104 19.5794 52.2619 19.8162C52.4198 20.2109 52.5777 20.4478 52.8935 20.7636C53.2093 21.0794 53.4461 21.2373 53.8409 21.3951C54.1567 21.4741 54.5514 21.632 55.3409 21.7109C56.2093 21.7109 56.4461 21.7899 58.6567 21.7899C60.8672 21.7899 61.104 21.7899 61.9725 21.7109C62.7619 21.7109 63.2356 21.553 63.4725 21.3951C63.8672 21.2373 64.104 21.0794 64.4198 20.7636C64.7356 20.4478 64.8935 20.2109 65.0514 19.8162C65.1303 19.5004 65.2882 19.1057 65.3672 18.3162C65.4461 17.4478 65.4461 17.2109 65.4461 15.0004C65.4461 12.7899 65.4461 12.553 65.3672 11.6846C65.2882 10.8951 65.2093 10.4215 65.0514 10.1846ZM58.6567 19.2636C56.2882 19.2636 54.3935 17.3688 54.3935 15.0004C54.3935 12.632 56.2882 10.7373 58.6567 10.7373C61.0251 10.7373 62.9198 12.632 62.9198 15.0004C62.9198 17.3688 61.0251 19.2636 58.6567 19.2636ZM63.0777 11.6057C62.5251 11.6057 62.0514 11.132 62.0514 10.5794C62.0514 10.0267 62.5251 9.55304 63.0777 9.55304C63.6303 9.55304 64.104 10.0267 64.104 10.5794C64.0251 11.2109 63.6303 11.6057 63.0777 11.6057Z" fill="white"/>
<path d="M58.6577 12.3164C57.1577 12.3164 55.8945 13.5796 55.8945 15.0796C55.8945 16.5796 57.1577 17.8427 58.6577 17.8427C60.1577 17.8427 61.4208 16.5796 61.4208 15.0796C61.4208 13.5006 60.1577 12.3164 58.6577 12.3164Z" fill="white"/>
<path d="M58.6563 0C50.3668 0 43.6562 6.71053 43.6562 15C43.6562 23.2895 50.3668 30 58.6563 30C66.9457 30 73.6563 23.2895 73.6563 15C73.6563 6.71053 66.9457 0 58.6563 0ZM66.8668 18.3947C66.7878 19.2632 66.7089 19.8947 66.472 20.3684C66.2352 20.9211 65.9984 21.3947 65.5247 21.7895C65.051 22.2632 64.5773 22.5 64.1036 22.7368C63.551 22.9737 62.9984 23.0526 62.1299 23.1316C61.2615 23.2105 60.9457 23.2105 58.7352 23.2105C56.5247 23.2105 56.2089 23.2105 55.3405 23.1316C54.472 23.0526 53.8405 22.9737 53.3668 22.7368C52.8141 22.5 52.3405 22.2632 51.9457 21.7895C51.472 21.3158 51.2352 20.8421 50.9984 20.3684C50.7615 19.8158 50.6826 19.2632 50.6036 18.3947C50.5247 17.5263 50.5247 17.2105 50.5247 15C50.5247 12.7895 50.5247 12.4737 50.6036 11.6053C50.6826 10.7368 50.7615 10.1053 50.9984 9.63158C51.2352 9.07895 51.472 8.60526 51.9457 8.21053C52.4194 7.73684 52.8931 7.5 53.3668 7.26316C53.9194 7.02632 54.472 6.94737 55.3405 6.86842C56.2089 6.78947 56.5247 6.78947 58.7352 6.78947C60.9457 6.78947 61.2615 6.78947 62.1299 6.86842C62.9984 6.94737 63.6299 7.02632 64.1036 7.26316C64.6562 7.5 65.1299 7.73684 65.5247 8.21053C65.9984 8.68421 66.2352 9.1579 66.472 9.63158C66.7089 10.1842 66.7878 10.7368 66.8668 11.6053C66.9457 12.4737 66.9457 12.7895 66.9457 15C66.8668 17.2895 66.8668 17.5263 66.8668 18.3947Z" fill="white"/>
</svg>
