<svg width="299" height="63" viewBox="0 0 299 63" fill="none" xmlns="http://www.w3.org/2000/svg">
<g clip-path="url(#clip0_1206_42)">
<path d="M276.012 62.9996H22.9876C0.646487 62.9996 0 36.8645 0 33.8875C0 30.9042 0.646487 4.77539 22.9876 4.77539H276.012C298.353 4.77539 299 30.9042 299 33.8875C299 36.8645 298.353 62.9996 276.012 62.9996Z" fill="#990005"/>
<path d="M276.012 58.2242H22.9876C0.646487 58.2242 0 32.0891 0 29.1121C0 26.1351 0.646487 0 22.9876 0H276.012C298.353 0 299 26.1351 299 29.1121C299 32.0891 298.353 58.2242 276.012 58.2242Z" fill="#E00814"/>
<g opacity="0.7">
<path opacity="0.7" d="M114.621 6.02341C158.881 5.81659 269.747 6.85071 269.747 6.85071C288.831 6.85071 294.195 17.7623 294.655 24.9134C294.724 23.8229 294.655 25.3082 294.655 24.9134C294.655 21.9364 292.188 3.00879 274.011 3.00879H24.1691C7.82667 3.00879 4.3083 16.747 3.46289 21.1404C6.24154 12.4224 92.8024 6.12996 114.621 6.02341Z" fill="#F7F2B8"/>
</g>
<g opacity="0.4">
<path opacity="0.4" d="M294.786 26.2793C294.494 30.5411 295.153 40.8072 281.34 46.9179C271.972 51.0606 172.451 52.2953 147.368 52.2953C147.356 52.2953 147.337 52.2953 147.325 52.2953C147.138 52.2953 146.946 52.2953 146.753 52.2953C146.56 52.2953 146.374 52.2953 146.181 52.2953C146.162 52.2953 146.15 52.2953 146.138 52.2953C121.055 52.2953 25.8786 51.0544 16.517 46.9179C2.71078 40.8072 3.36348 30.5411 3.07753 26.2793C3.00294 27.3698 0.690506 54.4826 23.7092 54.4826H146.187H147.325H274.154C297.173 54.4826 294.861 27.3698 294.786 26.2793Z" fill="#15863F"/>
</g>
<path d="M69.73 33.26C68.29 33.26 67.12 32.75 66.16 31.73C65.2 30.71 64.72 29.45 64.72 27.95C64.72 26.45 65.2 25.19 66.16 24.17C67.12 23.15 68.29 22.64 69.73 22.64C70.87 22.64 71.86 22.97 72.67 23.6C73.45 24.23 73.99 25.13 74.29 26.3L80.05 25.13C79.57 22.82 78.37 20.96 76.45 19.55C74.53 18.17 72.28 17.45 69.73 17.45C66.67 17.45 64.12 18.47 62.02 20.51C59.92 22.55 58.9 25.01 58.9 27.95C58.9 30.89 59.92 33.38 62.02 35.42C64.12 37.46 66.67 38.45 69.73 38.45C72.46 38.45 74.74 37.76 76.6 36.35C78.46 34.94 79.6 33.02 80.05 30.56L74.29 29.45C73.99 30.68 73.45 31.61 72.67 32.27C71.86 32.93 70.87 33.26 69.73 33.26ZM90.0295 22.43C87.6595 22.43 85.6495 23.18 83.9995 24.68C82.3495 26.18 81.5395 28.1 81.5395 30.44C81.5395 32.78 82.3495 34.7 83.9995 36.2C85.6495 37.7 87.6595 38.42 90.0295 38.42C92.3695 38.42 94.3795 37.7 96.0295 36.2C97.6795 34.7 98.5195 32.78 98.5195 30.44C98.5195 28.1 97.6795 26.18 96.0295 24.68C94.3795 23.18 92.3695 22.43 90.0295 22.43ZM90.0295 33.77C89.1895 33.77 88.4395 33.47 87.8395 32.81C87.2395 32.18 86.9395 31.4 86.9395 30.44C86.9395 29.51 87.2395 28.73 87.8395 28.07C88.4395 27.44 89.1595 27.11 90.0295 27.11C90.8695 27.11 91.6195 27.44 92.2195 28.07C92.8195 28.73 93.1195 29.51 93.1195 30.44C93.1195 31.4 92.7895 32.18 92.1895 32.81C91.5895 33.47 90.8695 33.77 90.0295 33.77ZM110.713 22.4C108.883 22.4 107.353 23.06 106.153 24.38V22.85H100.543V38H106.153V30.65C106.153 29.63 106.363 28.82 106.813 28.25C107.263 27.71 107.863 27.41 108.643 27.41C109.273 27.41 109.783 27.65 110.173 28.07C110.563 28.52 110.773 29.09 110.773 29.81V38H116.413V28.61C116.413 26.72 115.873 25.22 114.853 24.08C113.803 22.97 112.423 22.4 110.713 22.4ZM126.826 22.43C124.456 22.43 122.446 23.18 120.796 24.68C119.146 26.18 118.336 28.1 118.336 30.44C118.336 32.78 119.146 34.7 120.796 36.2C122.446 37.7 124.456 38.42 126.826 38.42C129.166 38.42 131.176 37.7 132.826 36.2C134.476 34.7 135.316 32.78 135.316 30.44C135.316 28.1 134.476 26.18 132.826 24.68C131.176 23.18 129.166 22.43 126.826 22.43ZM126.826 33.77C125.986 33.77 125.236 33.47 124.636 32.81C124.036 32.18 123.736 31.4 123.736 30.44C123.736 29.51 124.036 28.73 124.636 28.07C125.236 27.44 125.956 27.11 126.826 27.11C127.666 27.11 128.416 27.44 129.016 28.07C129.616 28.73 129.916 29.51 129.916 30.44C129.916 31.4 129.586 32.18 128.986 32.81C128.386 33.47 127.666 33.77 126.826 33.77ZM147.69 31.31C147.27 32.93 146.37 33.71 144.93 33.71C144.03 33.71 143.31 33.41 142.77 32.78C142.2 32.18 141.93 31.4 141.93 30.44C141.93 29.51 142.2 28.73 142.77 28.1C143.31 27.47 144.03 27.14 144.93 27.14C145.59 27.14 146.19 27.35 146.67 27.77C147.15 28.19 147.45 28.76 147.63 29.54L152.79 28.46C152.43 26.66 151.53 25.19 150.09 24.08C148.62 22.97 146.91 22.4 144.93 22.4C142.59 22.4 140.58 23.15 138.96 24.65C137.34 26.15 136.53 28.1 136.53 30.44C136.53 32.78 137.34 34.7 138.96 36.2C140.58 37.7 142.59 38.45 144.93 38.45C146.91 38.45 148.65 37.91 150.12 36.77C151.59 35.63 152.49 34.16 152.82 32.3L147.69 31.31ZM170.16 30.74C170.13 28.16 169.38 26.12 167.94 24.62C166.47 23.15 164.58 22.4 162.27 22.4C159.93 22.4 157.98 23.15 156.39 24.65C154.8 26.15 154.02 28.1 154.02 30.44C154.02 32.78 154.8 34.7 156.39 36.2C157.98 37.7 159.93 38.45 162.27 38.45C164.07 38.45 165.66 38.06 167.01 37.25C168.33 36.44 169.32 35.24 169.95 33.65L164.94 32.66C164.43 33.65 163.53 34.13 162.27 34.13C161.55 34.13 160.98 33.95 160.5 33.53C160.02 33.11 159.69 32.54 159.51 31.79H170.16V30.74ZM162.27 26.78C163.53 26.78 164.34 27.44 164.73 28.7H159.57C159.75 28.1 160.11 27.65 160.59 27.29C161.07 26.96 161.61 26.78 162.27 26.78ZM202.765 17.9H196.675L190.765 28.88L184.885 17.9H178.795V38H184.435V28.97L188.905 38H192.655L197.125 28.91V38H202.765V17.9ZM216.672 20.99L220.482 16.19H213.732L211.482 20.99H216.672ZM222.132 22.85H216.522V24.08C215.382 22.97 213.912 22.4 212.082 22.4C209.982 22.4 208.212 23.15 206.832 24.65C205.452 26.15 204.762 28.07 204.762 30.44C204.762 32.81 205.452 34.73 206.832 36.23C208.212 37.73 209.982 38.45 212.082 38.45C213.912 38.45 215.382 37.91 216.522 36.77V38H222.132V22.85ZM213.432 33.77C212.502 33.77 211.752 33.47 211.212 32.84C210.642 32.21 210.372 31.4 210.372 30.44C210.372 29.48 210.642 28.67 211.212 28.04C211.752 27.41 212.502 27.08 213.432 27.08C214.272 27.08 215.022 27.41 215.622 28.04C216.222 28.7 216.522 29.48 216.522 30.44C216.522 31.4 216.222 32.18 215.622 32.81C215.022 33.47 214.272 33.77 213.432 33.77ZM224.127 34.07C224.427 35.54 225.267 36.65 226.617 37.37C227.937 38.09 229.617 38.45 231.627 38.45C233.697 38.45 235.407 38 236.727 37.1C238.047 36.2 238.737 34.94 238.737 33.32C238.737 32.06 238.347 31.04 237.627 30.2C236.877 29.36 235.767 28.82 234.267 28.52L230.817 27.83C230.157 27.71 229.827 27.44 229.827 27.02C229.827 26.42 230.277 26.12 231.237 26.12C231.837 26.12 232.317 26.3 232.707 26.6C233.097 26.9 233.337 27.26 233.397 27.62L238.437 26.63C238.077 25.31 237.267 24.26 236.037 23.51C234.777 22.79 233.187 22.4 231.207 22.4C229.227 22.4 227.607 22.88 226.347 23.84C225.057 24.8 224.427 26.06 224.427 27.68C224.427 30.14 225.927 31.64 228.927 32.18L231.957 32.69C232.857 32.84 233.337 33.14 233.337 33.59C233.337 33.86 233.187 34.07 232.917 34.25C232.617 34.43 232.227 34.49 231.747 34.49C230.487 34.49 229.737 34.01 229.497 33.02L224.127 34.07Z" fill="white"/>
</g>
<defs>
<clipPath id="clip0_1206_42">
<rect width="299" height="63" fill="white"/>
</clipPath>
</defs>
</svg>
