<svg width="40" height="40" viewBox="0 0 40 40" fill="none" xmlns="http://www.w3.org/2000/svg">
<path d="M19.9995 0C8.94717 0 0 8.94717 0 19.9995C0 31.0519 8.94717 39.9991 19.9995 39.9991C31.0519 39.9991 39.9991 31.0519 39.9991 19.9995C40.1044 8.94717 31.0519 0 19.9995 0ZM25.5784 12.2102C25.5784 12.2102 23.6837 12.2102 22.9468 12.2102C21.9995 12.2102 21.789 12.6313 21.789 13.5786C21.789 14.4207 21.789 15.8944 21.789 15.8944H25.5784L25.2626 19.8943H21.8942V32.1045H17.0522V19.9995H14.526V15.7891H17.0522C17.0522 15.7891 17.0522 15.1575 17.0522 12.526C17.0522 9.47347 18.7364 7.89456 22.3153 7.89456C22.9468 7.89456 25.6836 7.89456 25.6836 7.89456V12.2102H25.5784Z" fill="#EDEDED"/>
</svg>
