<svg width="40" height="40" viewBox="0 0 40 40" fill="none" xmlns="http://www.w3.org/2000/svg">
<path d="M38.9276 17.395L22.6053 1.07791C21.9099 0.382738 20.9879 0 20.0034 0C19.0189 0 18.0969 0.382738 17.4015 1.07791L1.08705 17.3872C1.07924 17.395 1.07924 17.395 1.07142 17.4029C-0.35844 18.8401 -0.35844 21.1677 1.07924 22.605C1.73557 23.2611 2.59505 23.636 3.52485 23.6751C3.56391 23.6751 3.60298 23.6829 3.64205 23.6829H4.29056V35.6883C4.29056 38.0629 6.22049 40 8.60359 40H14.9872C15.6357 40 16.1592 39.4767 16.1592 38.8284V29.4083C16.1592 28.3226 17.0421 27.44 18.1282 27.44H21.8943C22.9803 27.44 23.8633 28.3226 23.8633 29.4083V38.8205C23.8633 39.4689 24.3868 39.9922 25.0353 39.9922H31.4111C33.7864 39.9922 35.7241 38.0629 35.7241 35.6805V23.6751H36.3257C37.3102 23.6751 38.2322 23.2923 38.9276 22.5971C40.3575 21.1677 40.3575 18.8323 38.9276 17.395Z" fill="#DE0209"/>
</svg>
