<svg width="40" height="41" viewBox="0 0 40 41" fill="none" xmlns="http://www.w3.org/2000/svg">
<path d="M28.5258 13.9108C28.3153 13.3845 28.1048 13.0687 27.6837 12.6477C27.2627 12.2266 26.9469 12.0161 26.4206 11.8056C25.9996 11.7003 25.4733 11.4898 24.4206 11.3846C23.2628 11.2793 22.947 11.2793 19.9997 11.2793C17.0524 11.2793 16.7366 11.2793 15.5787 11.3846C14.5261 11.3846 13.8946 11.5951 13.5788 11.8056C13.0525 12.0161 12.7367 12.2266 12.3157 12.6477C11.8946 13.0687 11.6841 13.3845 11.4736 13.9108C11.3683 14.3319 11.1578 14.8582 11.0525 15.9108C11.0525 17.0686 10.9473 17.3844 10.9473 20.3317C10.9473 23.279 10.9473 23.5948 11.0525 24.7527C11.0525 25.8053 11.263 26.4368 11.4736 26.7526C11.6841 27.2789 11.8946 27.5947 12.3157 28.0158C12.7367 28.4368 13.0525 28.6473 13.5788 28.8578C13.9998 28.9631 14.5261 29.1736 15.5787 29.2789C16.7366 29.2789 17.0524 29.3841 19.9997 29.3841C22.947 29.3841 23.2628 29.3841 24.4206 29.2789C25.4733 29.2789 26.1048 29.0684 26.4206 28.8578C26.9469 28.6473 27.2627 28.4368 27.6837 28.0158C28.1048 27.5947 28.3153 27.2789 28.5258 26.7526C28.6311 26.3316 28.8416 25.8053 28.9469 24.7527C29.0521 23.5948 29.0521 23.279 29.0521 20.3317C29.0521 17.3844 29.0521 17.0686 28.9469 15.9108C28.8416 14.8582 28.7363 14.2266 28.5258 13.9108ZM19.9997 26.0158C16.8419 26.0158 14.3156 23.4895 14.3156 20.3317C14.3156 17.1739 16.8419 14.6476 19.9997 14.6476C23.1575 14.6476 25.6838 17.1739 25.6838 20.3317C25.6838 23.4895 23.1575 26.0158 19.9997 26.0158ZM25.8943 15.8055C25.1575 15.8055 24.5259 15.1739 24.5259 14.4371C24.5259 13.7003 25.1575 13.0687 25.8943 13.0687C26.6311 13.0687 27.2627 13.7003 27.2627 14.4371C27.1574 15.2792 26.6311 15.8055 25.8943 15.8055Z" fill="#EDEDED"/>
<path d="M20.0005 16.7529C18.0006 16.7529 16.3164 18.4371 16.3164 20.4371C16.3164 22.437 18.0006 24.1212 20.0005 24.1212C22.0005 24.1212 23.6847 22.437 23.6847 20.4371C23.6847 18.3318 22.0005 16.7529 20.0005 16.7529Z" fill="#EDEDED"/>
<path d="M19.9995 0.332031C8.94717 0.332031 0 9.2792 0 20.3316C0 31.384 8.94717 40.3311 19.9995 40.3311C31.0519 40.3311 39.9991 31.384 39.9991 20.3316C39.9991 9.2792 31.0519 0.332031 19.9995 0.332031ZM30.9467 24.8578C30.8414 26.0157 30.7361 26.8577 30.4204 27.4893C30.1046 28.2261 29.7888 28.8577 29.1572 29.384C28.5257 30.0156 27.8941 30.3313 27.2625 30.6471C26.5257 30.9629 25.7889 31.0682 24.631 31.1734C23.4731 31.2787 23.0521 31.2787 20.1048 31.2787C17.1575 31.2787 16.7365 31.2787 15.5786 31.1734C14.4207 31.0682 13.5786 30.9629 12.9471 30.6471C12.2102 30.3313 11.5787 30.0156 11.0524 29.384C10.4208 28.7524 10.105 28.1209 9.78925 27.4893C9.47347 26.7525 9.36821 26.0157 9.26295 24.8578C9.15769 23.6999 9.15769 23.2789 9.15769 20.3316C9.15769 17.3843 9.15769 16.9632 9.26295 15.8054C9.36821 14.6475 9.47347 13.8054 9.78925 13.1738C10.105 12.437 10.4208 11.8055 11.0524 11.2792C11.6839 10.6476 12.3155 10.3318 12.9471 10.016C13.6839 9.70024 14.4207 9.59498 15.5786 9.48972C16.7365 9.38446 17.1575 9.38446 20.1048 9.38446C23.0521 9.38446 23.4731 9.38446 24.631 9.48972C25.7889 9.59498 26.631 9.70024 27.2625 10.016C27.9994 10.3318 28.6309 10.6476 29.1572 11.2792C29.7888 11.9107 30.1046 12.5423 30.4204 13.1738C30.7361 13.9107 30.8414 14.6475 30.9467 15.8054C31.0519 16.9632 31.0519 17.3843 31.0519 20.3316C30.9467 23.3841 30.9467 23.6999 30.9467 24.8578Z" fill="#EDEDED"/>
</svg>
