<svg width="80" height="80" viewBox="0 0 80 80" fill="none" xmlns="http://www.w3.org/2000/svg">
<rect x="1.5" y="1.5" width="77" height="77" rx="18.5" fill="#E2211C" stroke="white" stroke-width="3"/>
<path d="M63.3122 39.6701H62.8734V36.1138C62.8734 25.0062 53.8672 16 42.7596 16H37.4021C26.2944 16 17.2882 25.0062 17.2882 36.1138V39.6701H16.2953C13.9167 39.6701 12 41.5868 12 43.9654V45.9513C12 49.2536 14.6788 51.9324 17.981 51.9324C18.2351 51.9324 18.4891 51.9093 18.7431 51.8631C21.7221 59.2528 28.9501 64.4717 37.4021 64.4717H42.7596C51.2115 64.4717 58.4396 59.2528 61.4186 51.8862C61.6495 51.9093 61.8573 51.9324 62.0882 51.9324C65.3443 51.9324 68 49.2998 68 46.0206V44.3348C67.9769 41.7485 65.8986 39.6701 63.3122 39.6701Z" fill="#FFC5B2"/>
<path d="M63.3122 39.6701H62.8735V36.1138C62.8735 25.0062 53.8673 16 42.7596 16H37.4021C37.3097 16 37.2174 16 37.125 16C48.0941 16.1386 56.9617 25.0986 56.9617 36.0907V44.3348C56.9617 55.3501 48.1172 64.287 37.125 64.4256C37.2174 64.4256 37.3097 64.4256 37.4021 64.4256H42.7596C51.2116 64.4256 58.4396 59.2066 61.4186 51.84C61.6495 51.8631 61.8574 51.8862 62.0883 51.8862C65.3444 51.8862 68.0001 49.2536 68.0001 45.9744V44.2887C67.977 41.7485 65.8986 39.6701 63.3122 39.6701Z" fill="#FFAE92"/>
<path d="M33.4771 30.687H46.6862C53.3138 30.687 59.2025 33.8969 62.8742 38.8619V36.1138C62.8742 25.0062 53.868 16 42.7604 16H37.4029C26.2952 16 17.2891 25.0062 17.2891 36.1138V38.8619C20.9608 33.8969 26.8495 30.687 33.4771 30.687Z" fill="#FFC50D"/>
<path d="M34.1675 42.3953C34.1675 43.8501 32.9898 45.0278 31.5349 45.0278C30.0801 45.0278 28.9023 43.8501 28.9023 42.3953C28.9023 40.9404 30.0801 39.7627 31.5349 39.7627C32.9898 39.7627 34.1675 40.9173 34.1675 42.3953Z" fill="#703E23"/>
<path d="M51.2808 42.3953C51.2808 43.8501 50.103 45.0278 48.6482 45.0278C47.1934 45.0278 46.0156 43.8501 46.0156 42.3953C46.0156 40.9404 47.1934 39.7627 48.6482 39.7627C50.103 39.7627 51.2808 40.9173 51.2808 42.3953Z" fill="#703E23"/>
<path d="M40.0826 57.6827C44.6781 57.6827 48.4422 54.2188 48.9271 49.7619C48.9733 49.2308 48.5807 48.792 48.0496 48.792H32.1156C31.5845 48.792 31.1919 49.2538 31.2381 49.7619C31.723 54.2188 35.5102 57.6827 40.0826 57.6827Z" fill="white"/>
<path d="M42.7611 16H37.4036C36.7339 16 36.0642 16.0231 35.3945 16.0924C44.1005 16.9468 51.1438 23.3435 53.0143 31.7031C56.9863 33.0194 60.4271 35.5596 62.8749 38.8619V36.1138C62.8749 25.0062 53.8688 16 42.7611 16Z" fill="#FFA300"/>
</svg>
