<svg width="40" height="41" viewBox="0 0 40 41" fill="none" xmlns="http://www.w3.org/2000/svg">
<path d="M19.9996 0.664062C8.94717 0.664062 0 9.61123 0 20.6636C0 31.716 8.94717 40.6632 19.9996 40.6632C31.0519 40.6632 39.9991 31.716 39.9991 20.6636C39.9991 9.61123 31.0519 0.664062 19.9996 0.664062ZM28.4204 16.3479C28.7362 22.5583 24.1047 29.4003 15.9996 29.4003C13.5786 29.4003 11.2629 28.6634 9.26295 27.4003C11.5787 27.7161 13.8944 26.9793 15.7891 25.6109C13.8944 25.6109 12.2102 24.3477 11.6839 22.5583C12.4208 22.6636 13.0523 22.6636 13.6839 22.453C11.5787 22.032 10.105 20.1373 10.2103 18.1374C10.8419 18.4531 11.4734 18.6637 12.2102 18.6637C10.2103 17.4005 9.68399 14.769 10.8419 12.7691C13.0523 15.4006 16.2102 17.19 19.8943 17.2953C19.2627 14.5585 21.3679 11.927 24.21 11.927C25.4731 11.927 26.631 12.4533 27.3678 13.2954C28.3152 13.0848 29.2625 12.7691 30.1046 12.2427C29.7888 13.2954 29.052 14.1374 28.2099 14.6637C29.052 14.5585 29.8941 14.348 30.7361 13.9269C29.9993 14.9795 29.2625 15.7164 28.4204 16.3479Z" fill="#EDEDED"/>
</svg>
