<svg width="33" height="33" viewBox="0 0 33 33" fill="none" xmlns="http://www.w3.org/2000/svg">
<path d="M16.2712 0.34375C7.27921 0.34375 0 7.57368 0 16.5048C0 25.4359 7.27921 32.6658 16.2712 32.6658C25.2632 32.6658 32.5424 25.4359 32.5424 16.5048C32.628 7.57368 25.2632 0.34375 16.2712 0.34375ZM20.81 10.2105C20.81 10.2105 19.2685 10.2105 18.669 10.2105C17.8983 10.2105 17.727 10.5507 17.727 11.3162C17.727 11.9967 17.727 13.1875 17.727 13.1875H20.81L20.5531 16.4197H17.8127V26.2864H13.8733V16.5048H11.818V13.1024H13.8733C13.8733 13.1024 13.8733 12.5921 13.8733 10.4657C13.8733 7.99897 15.2435 6.7231 18.1552 6.7231C18.669 6.7231 20.8956 6.7231 20.8956 6.7231V10.2105H20.81Z" fill="white"/>
</svg>
