<svg width="33" height="33" viewBox="0 0 33 33" fill="none" xmlns="http://www.w3.org/2000/svg">
<path d="M23.5632 11.3169C23.392 10.8916 23.2207 10.6364 22.8781 10.2962C22.5356 9.95595 22.2787 9.78584 21.8505 9.61572C21.5079 9.53066 21.0797 9.36055 20.2234 9.27549C19.2813 9.19043 19.0244 9.19043 16.6266 9.19043C14.2287 9.19043 13.9718 9.19043 13.0298 9.27549C12.1734 9.27549 11.6596 9.4456 11.4027 9.61572C10.9745 9.78584 10.7176 9.95595 10.375 10.2962C10.0325 10.6364 9.86118 10.8916 9.68991 11.3169C9.60427 11.6571 9.433 12.0824 9.34736 12.933C9.34736 13.8686 9.26172 14.1238 9.26172 16.5054C9.26172 18.887 9.26172 19.1422 9.34736 20.0779C9.34736 20.9284 9.51863 21.4388 9.68991 21.694C9.86118 22.1192 10.0325 22.3744 10.375 22.7146C10.7176 23.0549 10.9745 23.225 11.4027 23.3951C11.7452 23.4802 12.1734 23.6503 13.0298 23.7353C13.9718 23.7353 14.2287 23.8204 16.6266 23.8204C19.0244 23.8204 19.2813 23.8204 20.2234 23.7353C21.0797 23.7353 21.5936 23.5652 21.8505 23.3951C22.2787 23.225 22.5356 23.0549 22.8781 22.7146C23.2207 22.3744 23.392 22.1192 23.5632 21.694C23.6489 21.3537 23.8202 20.9284 23.9058 20.0779C23.9914 19.1422 23.9914 18.887 23.9914 16.5054C23.9914 14.1238 23.9914 13.8686 23.9058 12.933C23.8202 12.0824 23.7345 11.5721 23.5632 11.3169ZM16.6266 21.0985C14.0574 21.0985 12.0021 19.0572 12.0021 16.5054C12.0021 13.9537 14.0574 11.9123 16.6266 11.9123C19.1957 11.9123 21.251 13.9537 21.251 16.5054C21.251 19.0572 19.1957 21.0985 16.6266 21.0985ZM21.4223 12.8479C20.8228 12.8479 20.309 12.3376 20.309 11.7422C20.309 11.1468 20.8228 10.6364 21.4223 10.6364C22.0218 10.6364 22.5356 11.1468 22.5356 11.7422C22.4499 12.4226 22.0218 12.8479 21.4223 12.8479Z" fill="white"/>
<path d="M16.6282 13.6133C15.0011 13.6133 13.6309 14.9742 13.6309 16.5903C13.6309 18.2064 15.0011 19.5673 16.6282 19.5673C18.2553 19.5673 19.6255 18.2064 19.6255 16.5903C19.6255 14.8892 18.2553 13.6133 16.6282 13.6133Z" fill="white"/>
<path d="M16.6267 0.34375C7.63469 0.34375 0.355469 7.57368 0.355469 16.5048C0.355469 25.4359 7.63469 32.6658 16.6267 32.6658C25.6186 32.6658 32.8979 25.4359 32.8979 16.5048C32.8979 7.57368 25.6186 0.34375 16.6267 0.34375ZM25.533 20.1623C25.4474 21.0979 25.3617 21.7784 25.1048 22.2887C24.8479 22.8841 24.591 23.3945 24.0772 23.8198C23.5633 24.3301 23.0495 24.5853 22.5357 24.8405C21.9362 25.0956 21.3367 25.1807 20.3947 25.2657C19.4527 25.3508 19.1102 25.3508 16.7123 25.3508C14.3144 25.3508 13.9719 25.3508 13.0299 25.2657C12.0879 25.1807 11.4027 25.0956 10.8889 24.8405C10.2895 24.5853 9.77563 24.3301 9.34744 23.8198C8.83362 23.3094 8.5767 22.7991 8.31979 22.2887C8.06287 21.6933 7.97724 21.0979 7.8916 20.1623C7.80596 19.2266 7.80596 18.8864 7.80596 16.5048C7.80596 14.1231 7.80596 13.7829 7.8916 12.8473C7.97724 11.9116 8.06287 11.2312 8.31979 10.7208C8.5767 10.1254 8.83362 9.61507 9.34744 9.18978C9.86127 8.67943 10.3751 8.42426 10.8889 8.16909C11.4884 7.91391 12.0879 7.82885 13.0299 7.74379C13.9719 7.65874 14.3144 7.65874 16.7123 7.65874C19.1102 7.65874 19.4527 7.65874 20.3947 7.74379C21.3367 7.82885 22.0218 7.91391 22.5357 8.16909C23.1351 8.42426 23.649 8.67943 24.0772 9.18978C24.591 9.70013 24.8479 10.2105 25.1048 10.7208C25.3617 11.3162 25.4474 11.9116 25.533 12.8473C25.6186 13.7829 25.6186 14.1231 25.6186 16.5048C25.533 18.9715 25.533 19.2266 25.533 20.1623Z" fill="white"/>
</svg>
