<svg width="33" height="33" viewBox="0 0 33 33" fill="none" xmlns="http://www.w3.org/2000/svg">
<path d="M16.613 0.34375C7.62101 0.34375 0.341797 7.57368 0.341797 16.5048C0.341797 25.4359 7.62101 32.6658 16.613 32.6658C25.605 32.6658 32.8842 25.4359 32.8842 16.5048C32.8842 7.57368 25.605 0.34375 16.613 0.34375ZM12.588 23.7347H9.24813V12.9323H12.588V23.7347ZM10.8752 11.4863C9.76195 11.4863 8.90558 10.5507 8.90558 9.53001C8.90558 8.42426 9.76195 7.57368 10.8752 7.57368C11.9885 7.57368 12.8449 8.50932 12.8449 9.53001C12.8449 10.6358 11.9885 11.4863 10.8752 11.4863ZM25.2624 23.7347H21.9225C21.9225 23.7347 21.9225 19.6519 21.9225 18.0358C21.9225 16.5048 21.3231 15.5691 20.1241 15.5691C18.7539 15.5691 18.0688 16.5048 18.0688 18.0358C18.0688 19.737 18.0688 23.7347 18.0688 23.7347H14.8146V12.9323H18.0688V14.3783C18.0688 14.3783 19.0108 12.5921 21.3231 12.5921C23.6353 12.5921 25.2624 13.953 25.2624 16.9301C25.2624 19.822 25.2624 23.7347 25.2624 23.7347Z" fill="white"/>
</svg>
