<svg width="34" height="33" viewBox="0 0 34 33" fill="none" xmlns="http://www.w3.org/2000/svg">
<path d="M16.986 0.34375C7.99407 0.34375 0.714844 7.57368 0.714844 16.5048C0.714844 25.4359 7.99407 32.6658 16.986 32.6658C25.978 32.6658 33.2572 25.4359 33.2572 16.5048C33.2572 7.57368 25.978 0.34375 16.986 0.34375ZM23.8371 13.0174C24.094 18.0358 20.3259 23.5646 13.7318 23.5646C11.7621 23.5646 9.87809 22.9692 8.25098 21.9485C10.135 22.2037 12.019 21.6082 13.5605 20.5025C12.019 20.5025 10.6488 19.4818 10.2206 18.0358C10.8201 18.1209 11.3339 18.1209 11.8478 17.9508C10.135 17.6105 8.93608 16.0795 9.02172 14.4634C9.53554 14.7186 10.0494 14.8887 10.6488 14.8887C9.02171 13.868 8.59353 11.7415 9.53554 10.1254C11.3339 12.2519 13.9031 13.6979 16.9004 13.7829C16.3866 11.5714 18.0993 9.44495 20.4116 9.44495C21.4392 9.44495 22.3812 9.87024 22.9807 10.5507C23.7514 10.3806 24.5222 10.1254 25.2073 9.70013C24.9503 10.5507 24.3509 11.2312 23.6658 11.6565C24.3509 11.5714 25.036 11.4013 25.7211 11.0611C25.1216 11.9116 24.5222 12.507 23.8371 13.0174Z" fill="white"/>
</svg>
