<svg width="34" height="33" viewBox="0 0 34 33" fill="none" xmlns="http://www.w3.org/2000/svg">
<path d="M17.2575 0.34375C8.26554 0.34375 0.986328 7.57368 0.986328 16.5048C0.986328 25.4359 8.26554 32.6658 17.2575 32.6658C26.2495 32.6658 33.5287 25.4359 33.5287 16.5048C33.6143 7.57368 26.2495 0.34375 17.2575 0.34375ZM28.3048 22.1186C28.0479 23.1393 27.2771 23.9048 26.2495 24.16C24.4511 24.6703 17.2575 24.6703 17.2575 24.6703C17.2575 24.6703 10.0639 24.6703 8.26554 24.16C7.23789 23.9048 6.46714 23.1393 6.21023 22.1186C5.6964 20.3324 5.69641 16.5898 5.69641 16.5898C5.69641 16.5898 5.6964 12.8473 6.21023 11.0611C6.46714 10.0404 7.23789 9.27484 8.26554 9.01966C10.0639 8.50932 17.2575 8.50932 17.2575 8.50932C17.2575 8.50932 24.4511 8.50932 26.2495 9.01966C27.2771 9.27484 28.0479 10.0404 28.3048 11.0611C28.8186 12.8473 28.8186 16.5898 28.8186 16.5898C28.8186 16.5898 28.8186 20.2473 28.3048 22.1186Z" fill="white"/>
<path d="M14.9453 19.9072V13.1025L20.94 16.5049L14.9453 19.9072Z" fill="white"/>
</svg>
