<svg width="40" height="40" viewBox="0 0 40 40" fill="none" xmlns="http://www.w3.org/2000/svg">
<path d="M20 0C14.6957 0 9.60858 2.10714 5.85785 5.85786C2.10712 9.60859 0 14.6957 0 20C0 25.3043 2.10712 30.3914 5.85785 34.1421C9.60858 37.8929 14.6957 40 20 40C25.3043 40 30.3914 37.8929 34.1421 34.1421C37.8929 30.3914 40 25.3043 40 20C40 14.6957 37.8929 9.60859 34.1421 5.85786C30.3914 2.10714 25.3043 0 20 0V0ZM33.5789 26.8947C33.4188 27.4982 33.1032 28.0491 32.6636 28.4924C32.224 28.9357 31.6758 29.2559 31.0737 29.4211C28.8631 30.0105 20 30.0105 20 30.0105C20 30.0105 11.1474 30.0105 8.93683 29.4211C8.33474 29.2559 7.78651 28.9357 7.3469 28.4924C6.90728 28.0491 6.59165 27.4982 6.43156 26.8947C6.02484 24.63 5.82752 22.3325 5.84209 20.0316C5.82752 17.7306 6.02484 15.4332 6.43156 13.1684C6.59165 12.565 6.90728 12.0141 7.3469 11.5708C7.78651 11.1275 8.33474 10.8072 8.93683 10.6421C11.1474 10.0526 20 10.0526 20 10.0526C20 10.0526 28.8631 10.0526 31.0737 10.6421C31.6758 10.8072 32.224 11.1275 32.6636 11.5708C33.1032 12.0141 33.4188 12.565 33.5789 13.1684C33.9857 15.4332 34.183 17.7306 34.1684 20.0316C34.183 22.3325 33.9857 24.63 33.5789 26.8947Z" fill="#EDEDED"/>
<path d="M17.1035 24.2433V15.8223L24.514 20.0328L17.1035 24.2433Z" fill="#EDEDED"/>
</svg>
